<svg width="512" height="512" viewBox="0 0 48 48" fill="none" xmlns="http://www.w3.org/2000/svg">
  <defs>
    <linearGradient id="pe-shield" x1="8" y1="6" x2="40" y2="42" gradientUnits="userSpaceOnUse">
      <stop stop-color="#A5B4FC"/>
      <stop offset="0.45" stop-color="#6366F1"/>
      <stop offset="1" stop-color="#4F46E5"/>
    </linearGradient>
    <linearGradient id="pe-sweep" x1="10" y1="30" x2="38" y2="14" gradientUnits="userSpaceOnUse">
      <stop stop-color="#22C55E" stop-opacity="0.15"/>
      <stop offset="0.5" stop-color="#34D399"/>
      <stop offset="1" stop-color="#6EE7B7" stop-opacity="0.9"/>
    </linearGradient>
  </defs>
  <rect width="48" height="48" rx="13" fill="#0B0F19"/>
  <rect x="0.75" y="0.75" width="46.5" height="46.5" rx="12.25" stroke="url(#pe-shield)" stroke-opacity="0.35" stroke-width="1.5"/>
  <path d="M24 7.5 37.5 13.2V24.2c0 7.2-6.2 13.4-13.5 16.3C16.7 37.6 10.5 31.4 10.5 24.2V13.2L24 7.5Z" fill="url(#pe-shield)"/>
  <path d="M24 11.2 33.8 15.4v8.4c0 5.2-4.4 9.8-9.8 11.8-5.4-2-9.8-6.6-9.8-11.8v-8.4L24 11.2Z" fill="#0B0F19" fill-opacity="0.88"/>
  <path d="M13.5 29.5c4.2-3.8 8.8-6.2 10.5-7 5.2-2.6 9.8-4.2 14.2-6.2" stroke="url(#pe-sweep)" stroke-width="2.75" stroke-linecap="round"/>
  <circle cx="24" cy="26.5" r="5.5" fill="#22C55E" fill-opacity="0.18"/>
  <circle cx="24" cy="26.5" r="2.6" fill="#34D399"/>
  <path d="M22.6 26.6 23.6 27.6 25.6 25.4" stroke="#0B0F19" stroke-width="1.35" stroke-linecap="round" stroke-linejoin="round"/>
</svg>
